<svg width="57" height="56" viewBox="0 0 57 56" fill="none" xmlns="http://www.w3.org/2000/svg">
<path d="M28.0775 0.572556C12.5664 0.572556 0 13.1495 0 28.6501C0 41.0621 8.04421 51.5824 19.1927 55.2939C20.6019 55.5588 21.1108 54.6902 21.1108 53.9391C21.1108 53.2723 21.095 51.5087 21.0845 49.1677C13.2701 50.8594 11.6241 45.393 11.6241 45.393C10.3448 42.1571 8.49871 41.2884 8.49871 41.2884C5.9577 39.5529 8.70052 39.5898 8.70052 39.5898C11.5153 39.781 12.9964 42.4765 12.9964 42.4765C15.5005 46.7723 19.5665 45.5299 21.1757 44.8069C21.4214 42.9977 22.1532 41.7535 22.9499 41.0603C16.7166 40.3566 10.1623 37.9437 10.1623 27.1848C10.1623 24.112 11.2503 21.6096 13.049 19.6442C12.7384 18.9405 11.7873 16.0801 13.2965 12.2124C13.2965 12.2124 15.6462 11.4631 21.0178 15.0921C23.2657 14.4692 25.6523 14.1586 28.0371 14.1428C30.4237 14.1586 32.8086 14.4709 35.0565 15.0921C40.3965 11.4631 42.7445 12.2124 42.7445 12.2124C44.2519 16.0801 43.3008 18.9388 43.027 19.6442C44.8082 21.6096 45.8962 24.1138 45.8962 27.1848C45.8962 37.9683 39.3331 40.3461 33.0928 41.0322C34.0685 41.8728 34.9828 43.6013 34.9828 46.2248C34.9828 49.9802 34.9477 53.0055 34.9477 53.9198C34.9477 54.6498 35.4391 55.5272 36.8851 55.2447C48.1161 51.5718 56.1515 41.0428 56.1515 28.6483C56.1515 13.1478 43.5851 0.570801 28.074 0.570801L28.0775 0.572556Z" fill="white"/>
</svg>
