<svg width="57" height="57" viewBox="0 0 57 57" fill="none" xmlns="http://www.w3.org/2000/svg">
<path d="M48.6826 47.8534H40.3774V34.8209C40.3774 31.7133 40.3125 27.7195 36.0344 27.7195C31.7038 27.7195 31.044 31.0904 31.044 34.5911V47.8516H22.7283V21.0551H30.7158V24.7102H30.8229C31.9389 22.5992 34.6535 20.3795 38.7034 20.3795C47.1279 20.3795 48.6913 25.9262 48.6913 33.1382V47.8516L48.6826 47.8534ZM13.3334 17.3929C10.654 17.3929 8.50617 15.2258 8.50617 12.5569C8.50617 9.8967 10.6627 7.73311 13.3334 7.73311C16.0042 7.73311 18.1677 9.8967 18.1677 12.5569C18.1677 15.2258 16.0042 17.3929 13.3334 17.3929ZM17.4992 47.8534H9.16595V21.0568H17.4992V47.8534ZM52.8518 0H4.98968C2.70326 0 0.848511 1.80913 0.848511 4.04817V52.1051C0.848511 54.3441 2.70326 56.1532 4.98968 56.1532H52.843C55.126 56.1532 57 54.3441 57 52.1051V4.04817C57 1.80913 55.126 0 52.843 0L52.8518 0Z" fill="white"/>
</svg>
